<svg width="10" height="10" viewBox="0 0 10 10" fill="none" xmlns="http://www.w3.org/2000/svg">
<circle cx="5.17294" cy="5.00503" r="4.51692" fill="#D9D9D9" stroke="#D9D9D9" stroke-width="0.291414"/>
<g clip-path="url(#clip0_233_112)">
<path d="M8.09079 5.02511C8.09079 3.40476 6.78537 2.09137 5.17474 2.09137C3.5641 2.09137 2.25868 3.40476 2.25868 5.02511C2.25868 6.48975 3.32479 7.70341 4.71905 7.92348V5.8733H3.97876V5.02492H4.71905V4.37872C4.71905 3.64349 5.15432 3.23718 5.82054 3.23718C6.13937 3.23718 6.47335 3.29453 6.47335 3.29453V4.01655H6.10535C5.74317 4.01655 5.63042 4.24283 5.63042 4.47495V5.02511H6.43914L6.30986 5.8731H5.63042V7.92348C7.02468 7.70341 8.09079 6.48975 8.09079 5.02511Z" fill="black"/>
</g>
<defs>
<clipPath id="clip0_233_112">
<rect width="6.99853" height="6.99853" fill="white" transform="translate(1.67548 1.50818)"/>
</clipPath>
</defs>
</svg>
