<svg width="8" height="8" viewBox="0 0 8 8" fill="none" xmlns="http://www.w3.org/2000/svg">
<path fill-rule="evenodd" clip-rule="evenodd" d="M3.78619 1.38318C3.07339 1.38318 2.98416 1.38615 2.70422 1.39893C2.4248 1.4117 2.23392 1.45614 2.067 1.52105C1.89204 1.58684 1.73335 1.69006 1.60213 1.82374C1.46867 1.95481 1.36538 2.11339 1.29944 2.28844C1.23488 2.45535 1.19026 2.64641 1.17749 2.92583C1.16489 3.2056 1.16174 3.29465 1.16174 4.00763C1.16174 4.7206 1.16472 4.80966 1.17749 5.0896C1.19026 5.36902 1.2347 5.5599 1.29961 5.72681C1.3654 5.90178 1.46863 6.06047 1.6023 6.19169C1.73337 6.32515 1.89195 6.42844 2.067 6.49438C2.23392 6.55911 2.4248 6.60356 2.70422 6.61633C2.98416 6.6291 3.07339 6.63207 3.78619 6.63207C4.49899 6.63207 4.58822 6.6291 4.86816 6.61633C5.14758 6.60356 5.33846 6.55911 5.50538 6.4942C5.68034 6.42842 5.83903 6.32519 5.97026 6.19152C6.10371 6.06045 6.20701 5.90187 6.27294 5.72681C6.33768 5.5599 6.38212 5.36902 6.39489 5.0896C6.40766 4.80966 6.41064 4.72043 6.41064 4.00763C6.41064 3.29483 6.40766 3.2056 6.39489 2.92565C6.38212 2.64624 6.33768 2.45535 6.27277 2.28844C6.20688 2.11331 6.10358 1.95466 5.97008 1.82356C5.83901 1.6901 5.68043 1.58681 5.50538 1.52087C5.33846 1.45631 5.1474 1.4117 4.86799 1.39893C4.58822 1.38633 4.49917 1.38318 3.78619 1.38318ZM3.78619 1.8561C4.48692 1.8561 4.57003 1.85873 4.84682 1.87133C5.10261 1.88305 5.24153 1.92556 5.33409 1.96178C5.45656 2.0092 5.54405 2.06624 5.6359 2.15792C5.72776 2.24977 5.78462 2.33725 5.83204 2.45973C5.86808 2.55228 5.91077 2.6912 5.92249 2.947C5.93509 3.22379 5.93771 3.3069 5.93771 4.00763C5.93771 4.70835 5.93509 4.79146 5.92249 5.06825C5.91077 5.32405 5.86825 5.46297 5.83204 5.55553C5.79003 5.66952 5.72301 5.77265 5.6359 5.85734C5.55123 5.94447 5.4481 6.01149 5.33409 6.05347C5.24153 6.08951 5.10261 6.1322 4.84682 6.14393C4.57003 6.15652 4.48709 6.15915 3.78619 6.15915C3.08529 6.15915 3.00236 6.15652 2.72556 6.14393C2.46977 6.1322 2.33085 6.08969 2.23829 6.05347C2.1243 6.01147 2.02116 5.94445 1.93648 5.85734C1.84938 5.77265 1.78236 5.66952 1.74035 5.55553C1.7043 5.46297 1.66161 5.32405 1.64989 5.06825C1.63729 4.79146 1.63467 4.70835 1.63467 4.00763C1.63467 3.3069 1.63729 3.22379 1.64989 2.947C1.66161 2.6912 1.70413 2.55228 1.74035 2.45973C1.78776 2.33725 1.8448 2.24977 1.93648 2.15792C2.02115 2.07079 2.12429 2.00377 2.23829 1.96178C2.33085 1.92574 2.46977 1.88305 2.72556 1.87133C3.00236 1.85873 3.08546 1.8561 3.78619 1.8561V1.8561Z" fill="black"/>
<path fill-rule="evenodd" clip-rule="evenodd" d="M3.78619 4.88333C3.67119 4.88333 3.55732 4.86068 3.45108 4.81667C3.34484 4.77266 3.2483 4.70816 3.16698 4.62685C3.08567 4.54553 3.02117 4.449 2.97716 4.34275C2.93315 4.23651 2.9105 4.12264 2.9105 4.00764C2.9105 3.89264 2.93315 3.77877 2.97716 3.67253C3.02117 3.56628 3.08567 3.46975 3.16698 3.38843C3.2483 3.30712 3.34484 3.24261 3.45108 3.19861C3.55732 3.1546 3.67119 3.13195 3.78619 3.13195C4.01844 3.13195 4.24117 3.22421 4.4054 3.38843C4.56962 3.55266 4.66188 3.77539 4.66188 4.00764C4.66188 4.23989 4.56962 4.46262 4.4054 4.62685C4.24117 4.79107 4.01844 4.88333 3.78619 4.88333V4.88333ZM3.78619 2.65867C3.42842 2.65867 3.08531 2.8008 2.83233 3.05378C2.57935 3.30676 2.43723 3.64987 2.43723 4.00764C2.43723 4.36541 2.57935 4.70852 2.83233 4.9615C3.08531 5.21448 3.42842 5.35661 3.78619 5.35661C4.14396 5.35661 4.48707 5.21448 4.74005 4.9615C4.99303 4.70852 5.13516 4.36541 5.13516 4.00764C5.13516 3.64987 4.99303 3.30676 4.74005 3.05378C4.48707 2.8008 4.14396 2.65867 3.78619 2.65867V2.65867ZM5.5276 2.63418C5.5276 2.71875 5.494 2.79985 5.4342 2.85965C5.3744 2.91945 5.2933 2.95305 5.20873 2.95305C5.12416 2.95305 5.04305 2.91945 4.98325 2.85965C4.92345 2.79985 4.88986 2.71875 4.88986 2.63418C4.88986 2.54961 4.92345 2.4685 4.98325 2.4087C5.04305 2.3489 5.12416 2.31531 5.20873 2.31531C5.2933 2.31531 5.3744 2.3489 5.4342 2.4087C5.494 2.4685 5.5276 2.54961 5.5276 2.63418" fill="black"/>
</svg>
