<svg width="10" height="10" viewBox="0 0 10 10" fill="none" xmlns="http://www.w3.org/2000/svg">
<circle cx="4.78323" cy="5.00503" r="4.51692" fill="#D9D9D9" stroke="#D9D9D9" stroke-width="0.291414"/>
<path fill-rule="evenodd" clip-rule="evenodd" d="M4.78619 2.38318C4.07339 2.38318 3.98416 2.38615 3.70422 2.39893C3.4248 2.4117 3.23392 2.45614 3.067 2.52105C2.89204 2.58684 2.73335 2.69006 2.60213 2.82374C2.46867 2.95481 2.36538 3.11339 2.29944 3.28844C2.23488 3.45535 2.19026 3.64641 2.17749 3.92583C2.16489 4.2056 2.16174 4.29465 2.16174 5.00763C2.16174 5.7206 2.16472 5.80966 2.17749 6.0896C2.19026 6.36902 2.2347 6.5599 2.29961 6.72681C2.3654 6.90178 2.46863 7.06047 2.6023 7.19169C2.73337 7.32515 2.89195 7.42844 3.067 7.49438C3.23392 7.55911 3.4248 7.60356 3.70422 7.61633C3.98416 7.6291 4.07339 7.63207 4.78619 7.63207C5.49899 7.63207 5.58822 7.6291 5.86816 7.61633C6.14758 7.60356 6.33846 7.55911 6.50538 7.4942C6.68034 7.42842 6.83903 7.32519 6.97026 7.19152C7.10371 7.06045 7.20701 6.90187 7.27294 6.72681C7.33768 6.5599 7.38212 6.36902 7.39489 6.0896C7.40766 5.80966 7.41064 5.72043 7.41064 5.00763C7.41064 4.29483 7.40766 4.2056 7.39489 3.92565C7.38212 3.64624 7.33768 3.45535 7.27277 3.28844C7.20688 3.11331 7.10358 2.95466 6.97008 2.82356C6.83901 2.6901 6.68043 2.58681 6.50538 2.52087C6.33846 2.45631 6.1474 2.4117 5.86799 2.39893C5.58822 2.38633 5.49917 2.38318 4.78619 2.38318ZM4.78619 2.8561C5.48692 2.8561 5.57003 2.85873 5.84682 2.87133C6.10261 2.88305 6.24153 2.92556 6.33409 2.96178C6.45656 3.0092 6.54405 3.06624 6.6359 3.15792C6.72776 3.24977 6.78462 3.33725 6.83204 3.45973C6.86808 3.55228 6.91077 3.6912 6.92249 3.947C6.93509 4.22379 6.93771 4.3069 6.93771 5.00763C6.93771 5.70835 6.93509 5.79146 6.92249 6.06825C6.91077 6.32405 6.86825 6.46297 6.83204 6.55553C6.79003 6.66952 6.72301 6.77265 6.6359 6.85734C6.55123 6.94447 6.4481 7.01149 6.33409 7.05347C6.24153 7.08951 6.10261 7.1322 5.84682 7.14393C5.57003 7.15652 5.48709 7.15915 4.78619 7.15915C4.08529 7.15915 4.00236 7.15652 3.72556 7.14393C3.46977 7.1322 3.33085 7.08969 3.23829 7.05347C3.1243 7.01147 3.02116 6.94445 2.93648 6.85734C2.84938 6.77265 2.78236 6.66952 2.74035 6.55553C2.7043 6.46297 2.66161 6.32405 2.64989 6.06825C2.63729 5.79146 2.63467 5.70835 2.63467 5.00763C2.63467 4.3069 2.63729 4.22379 2.64989 3.947C2.66161 3.6912 2.70413 3.55228 2.74035 3.45973C2.78776 3.33725 2.8448 3.24977 2.93648 3.15792C3.02115 3.07079 3.12429 3.00377 3.23829 2.96178C3.33085 2.92574 3.46977 2.88305 3.72556 2.87133C4.00236 2.85873 4.08546 2.8561 4.78619 2.8561V2.8561Z" fill="black"/>
<path fill-rule="evenodd" clip-rule="evenodd" d="M4.78619 5.88333C4.67119 5.88333 4.55732 5.86068 4.45108 5.81667C4.34484 5.77266 4.2483 5.70816 4.16698 5.62685C4.08567 5.54553 4.02117 5.449 3.97716 5.34275C3.93315 5.23651 3.9105 5.12264 3.9105 5.00764C3.9105 4.89264 3.93315 4.77877 3.97716 4.67253C4.02117 4.56628 4.08567 4.46975 4.16698 4.38843C4.2483 4.30712 4.34484 4.24261 4.45108 4.19861C4.55732 4.1546 4.67119 4.13195 4.78619 4.13195C5.01844 4.13195 5.24117 4.22421 5.4054 4.38843C5.56962 4.55266 5.66188 4.77539 5.66188 5.00764C5.66188 5.23989 5.56962 5.46262 5.4054 5.62685C5.24117 5.79107 5.01844 5.88333 4.78619 5.88333V5.88333ZM4.78619 3.65867C4.42842 3.65867 4.08531 3.8008 3.83233 4.05378C3.57935 4.30676 3.43723 4.64987 3.43723 5.00764C3.43723 5.36541 3.57935 5.70852 3.83233 5.9615C4.08531 6.21448 4.42842 6.35661 4.78619 6.35661C5.14396 6.35661 5.48707 6.21448 5.74005 5.9615C5.99303 5.70852 6.13516 5.36541 6.13516 5.00764C6.13516 4.64987 5.99303 4.30676 5.74005 4.05378C5.48707 3.8008 5.14396 3.65867 4.78619 3.65867V3.65867ZM6.5276 3.63418C6.5276 3.71875 6.494 3.79985 6.4342 3.85965C6.3744 3.91945 6.2933 3.95305 6.20873 3.95305C6.12416 3.95305 6.04305 3.91945 5.98325 3.85965C5.92345 3.79985 5.88986 3.71875 5.88986 3.63418C5.88986 3.54961 5.92345 3.4685 5.98325 3.4087C6.04305 3.3489 6.12416 3.31531 6.20873 3.31531C6.2933 3.31531 6.3744 3.3489 6.4342 3.4087C6.494 3.4685 6.5276 3.54961 6.5276 3.63418" fill="black"/>
</svg>
