<svg width="8" height="8" viewBox="0 0 8 8" fill="none" xmlns="http://www.w3.org/2000/svg">
<path d="M6.17908 2.26058C5.86492 2.05575 5.63818 1.72802 5.56744 1.34597C5.55216 1.26342 5.54377 1.17847 5.54377 1.09155H4.54111L4.53951 5.10986C4.52265 5.55984 4.15229 5.921 3.69828 5.921C3.55717 5.921 3.4243 5.88572 3.30731 5.82416C3.03904 5.68298 2.85544 5.40178 2.85544 5.07818C2.85544 4.61342 3.23356 4.2353 3.69828 4.2353C3.78503 4.2353 3.86825 4.24962 3.94697 4.27427V3.25067C3.8655 3.23958 3.78273 3.23264 3.69828 3.23264C2.68065 3.23264 1.85278 4.06055 1.85278 5.07818C1.85278 5.70254 2.16473 6.25507 2.64064 6.58918C2.9404 6.79963 3.30503 6.92366 3.69828 6.92366C4.7159 6.92366 5.54377 6.0958 5.54377 5.07818V3.04055C5.93703 3.3228 6.41883 3.48913 6.93872 3.48913V2.48647C6.65867 2.48647 6.39783 2.40322 6.17908 2.26058Z" fill="black"/>
</svg>
