<svg width="11" height="10" viewBox="0 0 11 10" fill="none" xmlns="http://www.w3.org/2000/svg">
<circle cx="5.39403" cy="5.00503" r="4.51692" fill="#D9D9D9" stroke="#D9D9D9" stroke-width="0.291414"/>
<path d="M7.17908 3.26058C6.86492 3.05575 6.63818 2.72802 6.56744 2.34597C6.55216 2.26342 6.54377 2.17847 6.54377 2.09155H5.54111L5.53951 6.10986C5.52265 6.55984 5.15229 6.921 4.69828 6.921C4.55717 6.921 4.4243 6.88572 4.30731 6.82416C4.03904 6.68298 3.85544 6.40178 3.85544 6.07818C3.85544 5.61342 4.23356 5.2353 4.69828 5.2353C4.78503 5.2353 4.86825 5.24962 4.94697 5.27427V4.25067C4.8655 4.23958 4.78273 4.23264 4.69828 4.23264C3.68065 4.23264 2.85278 5.06055 2.85278 6.07818C2.85278 6.70254 3.16473 7.25507 3.64064 7.58918C3.9404 7.79963 4.30503 7.92366 4.69828 7.92366C5.7159 7.92366 6.54377 7.0958 6.54377 6.07818V4.04055C6.93703 4.3228 7.41883 4.48913 7.93872 4.48913V3.48647C7.65867 3.48647 7.39783 3.40322 7.17908 3.26058" fill="black"/>
</svg>
