<svg width="10" height="10" viewBox="0 0 10 10" fill="none" xmlns="http://www.w3.org/2000/svg">
<circle cx="5.00481" cy="5.00503" r="4.51692" fill="#D9D9D9" stroke="#D9D9D9" stroke-width="0.291414"/>
<path fill-rule="evenodd" clip-rule="evenodd" d="M7.27923 3.08734C7.53004 3.15472 7.72843 3.35311 7.79581 3.60391C7.91934 4.0606 7.92309 5.00766 7.92309 5.00766C7.92309 5.00766 7.92309 5.95847 7.79956 6.41141C7.73218 6.66221 7.53378 6.86061 7.28298 6.92799C6.83004 7.05152 5.00703 7.05152 5.00703 7.05152C5.00703 7.05152 3.18403 7.05152 2.73109 6.92799C2.48029 6.86061 2.28189 6.66221 2.21451 6.41141C2.09098 5.95473 2.09098 5.00766 2.09098 5.00766C2.09098 5.00766 2.09098 4.0606 2.21077 3.60766C2.27815 3.35686 2.47654 3.15846 2.72735 3.09108C3.18029 2.96755 5.00329 2.96381 5.00329 2.96381C5.00329 2.96381 6.82629 2.96381 7.27923 3.08734ZM5.93538 5.00767L4.42307 5.8836V4.13173L5.93538 5.00767Z" fill="black"/>
</svg>
