<svg width="6" height="6" viewBox="0 0 6 6" fill="none" xmlns="http://www.w3.org/2000/svg">
<path fill-rule="evenodd" clip-rule="evenodd" d="M5.27923 1.08734C5.53004 1.15472 5.72843 1.35311 5.79581 1.60391C5.91934 2.0606 5.92309 3.00766 5.92309 3.00766C5.92309 3.00766 5.92309 3.95847 5.79956 4.41141C5.73218 4.66221 5.53378 4.86061 5.28298 4.92799C4.83004 5.05152 3.00703 5.05152 3.00703 5.05152C3.00703 5.05152 1.18403 5.05152 0.73109 4.92799C0.480287 4.86061 0.281891 4.66221 0.21451 4.41141C0.0909805 3.95473 0.0909805 3.00766 0.0909805 3.00766C0.0909805 3.00766 0.0909805 2.0606 0.210767 1.60766C0.278147 1.35686 0.476544 1.15846 0.727346 1.09108C1.18029 0.967549 3.00329 0.963806 3.00329 0.963806C3.00329 0.963806 4.82629 0.963806 5.27923 1.08734ZM3.93538 3.00767L2.42307 3.8836V2.13173L3.93538 3.00767Z" fill="black"/>
</svg>
